<?xml version="1.0" standalone="no"?>
<!DOCTYPE svg PUBLIC "-//W3C//DTD SVG 20010904//EN"
 "http://www.w3.org/TR/2001/REC-SVG-20010904/DTD/svg10.dtd">
<svg version="1.0" xmlns="http://www.w3.org/2000/svg"
 width="220.000000pt" height="343.000000pt" viewBox="0 0 220.000000 343.000000"
 preserveAspectRatio="xMidYMid meet">

<g transform="translate(0.000000,343.000000) scale(0.100000,-0.100000)"
fill="#000000" stroke="none">
<path d="M1173 3017 c-17 -17 -32 -28 -82 -60 -38 -26 -46 -28 -67 -16 -13 7
-24 16 -24 21 0 4 -6 8 -14 8 -8 0 -16 7 -20 15 -3 8 -10 15 -17 15 -7 0 -9
-13 -4 -40 6 -37 5 -40 -17 -39 -89 3 -193 -51 -252 -131 -23 -32 -48 -72 -55
-89 -8 -17 -17 -31 -22 -31 -5 0 -9 -6 -9 -14 0 -8 -13 -26 -30 -39 -35 -30
-40 -51 -9 -42 18 6 20 4 14 -17 -12 -41 -97 -208 -132 -260 -19 -27 -32 -52
-29 -56 9 -8 75 17 116 44 19 13 38 24 42 24 5 0 8 -30 8 -67 0 -38 7 -108 16
-158 11 -61 14 -116 10 -172 -3 -46 -3 -83 1 -83 5 1 30 33 58 71 45 64 50 69
56 47 4 -12 16 -47 28 -76 11 -29 21 -55 21 -57 0 -3 -13 -5 -29 -5 -37 0
-107 -25 -129 -46 -15 -15 -45 -16 -301 -13 -221 3 -285 1 -288 -8 -4 -10 57
-13 281 -13 l286 0 0 -26 c0 -25 -24 -53 -85 -99 -27 -20 -27 -22 -15 -70 17
-70 16 -90 -15 -175 -14 -41 -28 -82 -30 -90 -2 -8 -8 -27 -13 -41 -6 -14 -13
-52 -16 -84 -4 -32 -8 -61 -10 -64 -3 -3 -7 -41 -11 -84 -3 -43 -10 -89 -15
-102 -5 -14 -8 -25 -5 -25 2 0 -1 -15 -6 -32 -5 -18 -12 -49 -15 -68 -2 -19
-8 -48 -11 -65 -8 -40 -11 -61 -17 -120 -7 -68 -14 -113 -22 -137 -7 -25 -12
-52 -24 -148 -5 -41 -12 -88 -14 -105 -3 -16 -8 -65 -11 -107 -5 -62 -3 -78 7
-78 10 0 17 31 26 117 7 65 19 161 27 213 7 52 21 149 29 215 9 66 27 176 41
245 13 69 29 163 34 210 11 95 29 183 64 313 19 68 32 96 58 124 60 63 145 87
217 62 17 -6 37 -9 44 -6 21 7 -96 37 -144 37 -35 0 -51 -6 -78 -30 -18 -16
-37 -30 -41 -30 -4 0 -15 21 -25 47 l-18 47 29 20 c47 34 66 58 84 111 20 58
44 74 125 82 49 5 53 4 71 -23 12 -19 14 -29 7 -32 -7 -2 -12 -14 -12 -28 0
-17 -4 -22 -15 -18 -29 11 -15 -14 28 -48 23 -19 67 -51 97 -70 30 -20 78 -59
107 -87 29 -28 56 -51 62 -51 6 0 34 20 63 45 51 44 223 162 288 198 18 10 30
20 27 24 -4 3 -12 2 -19 -4 -7 -5 -25 -14 -40 -21 -26 -11 -27 -10 -16 7 18
29 -6 51 -52 51 -34 0 -37 2 -33 21 9 34 65 44 123 22 8 -3 20 -7 27 -9 83
-17 103 -39 102 -116 0 -24 4 -58 10 -77 13 -41 10 -46 -19 -31 -25 13 -97 0
-140 -26 l-25 -15 25 6 c14 4 49 9 78 12 44 5 58 2 90 -19 128 -86 146 -158
211 -838 19 -194 32 -322 42 -400 5 -41 12 -114 15 -162 4 -49 10 -88 15 -88
16 0 20 43 10 113 -11 71 -13 92 -26 232 -3 39 -8 81 -10 95 -3 14 -7 54 -10
90 -3 36 -8 81 -10 100 -13 89 -16 118 -19 160 -23 303 -63 546 -101 619 -8
17 -33 44 -54 61 -42 34 -46 49 -57 177 l-6 63 313 2 c239 2 313 6 317 16 3 9
-65 12 -317 12 -274 0 -327 2 -363 17 -24 9 -46 19 -50 22 -4 4 2 36 13 71 36
111 31 107 67 56 18 -25 38 -46 43 -46 6 0 7 58 4 153 -4 120 -3 147 6 130 19
-35 40 -29 35 10 -3 17 -8 55 -11 82 -4 28 -12 59 -18 70 -6 12 7 6 34 -18 49
-42 103 -70 126 -65 13 2 11 9 -11 34 -14 18 -26 35 -26 40 0 4 -6 15 -13 23
-8 9 -24 50 -37 91 -12 41 -27 86 -33 100 -6 14 -11 27 -11 30 -1 3 -18 37
-39 77 -43 84 -45 95 -14 88 12 -3 29 -1 37 5 13 9 12 12 -5 26 -11 8 -31 18
-44 21 -14 3 -34 15 -45 25 -45 40 -102 80 -145 100 -56 26 -60 27 -139 36
l-62 7 20 37 c11 21 20 42 20 48 0 14 -22 12 -37 -3z m55 -594 c12 -32 32 -94
32 -99 0 -2 -4 -4 -10 -4 -5 0 -35 -11 -65 -25 -51 -22 -55 -26 -45 -45 8 -15
21 -20 50 -20 21 0 42 -4 45 -10 9 -14 31 -12 48 4 8 8 30 19 48 24 l34 10
-32 1 c-43 1 -42 15 3 29 26 8 36 8 39 -1 11 -40 16 -48 24 -42 6 3 13 -10 17
-30 6 -33 3 -57 -12 -102 -4 -11 4 -6 19 12 14 17 35 63 47 104 l22 73 19 -28
c21 -32 25 -85 9 -114 -17 -32 -102 -92 -111 -79 -4 8 -20 -15 -41 -57 -39
-80 -90 -134 -179 -187 -52 -31 -71 -37 -101 -34 -91 12 -230 113 -268 194
-59 129 -63 148 -44 205 8 26 19 50 24 53 17 11 92 -8 111 -28 16 -17 22 -19
44 -9 35 16 55 15 55 -2 0 -31 -63 -34 -138 -7 -59 22 -66 15 -21 -23 37 -32
68 -40 113 -32 30 6 35 4 38 -15 3 -19 11 -12 59 47 67 83 101 142 124 212 9
28 20 52 25 52 4 0 12 -12 18 -27z m121 -50 c1 -16 -26 -17 -31 -2 -2 6 -2 28
1 48 l4 36 13 -35 c7 -19 13 -41 13 -47z m-464 17 c-4 -17 -12 -29 -18 -27
-14 5 -10 36 5 55 16 19 21 8 13 -28z m132 -27 c-1 -38 -6 -67 -10 -65 -4 1
-13 2 -20 2 -7 0 -21 6 -30 13 -16 11 -14 16 18 65 20 28 38 52 40 52 3 0 4
-30 2 -67z m-169 -80 c2 -8 -5 -13 -17 -13 -12 0 -21 6 -21 16 0 18 31 15 38
-3z m-158 -45 c0 -24 3 -61 7 -83 l6 -40 -26 23 c-33 30 -39 67 -18 108 22 45
31 42 31 -8z m240 26 c0 -2 -9 -4 -20 -4 -11 0 -20 4 -20 9 0 5 9 7 20 4 11
-3 20 -7 20 -9z m-166 -170 c11 -27 7 -37 -9 -24 -16 14 -20 40 -6 40 5 0 12
-7 15 -16z m594 -256 c20 -20 14 -38 -13 -38 -18 0 -25 5 -25 18 0 32 17 41
38 20z m-333 -38 c59 -25 92 -25 130 0 52 34 55 30 55 -79 0 -79 3 -103 16
-116 19 -19 25 -12 -79 -99 -38 -31 -75 -56 -82 -54 -7 2 -43 32 -80 67 -55
53 -63 65 -51 75 25 19 36 63 36 147 0 43 2 79 4 79 2 0 25 -9 51 -20z m-155
-35 c18 -21 6 -45 -20 -38 -25 7 -32 17 -24 37 8 20 28 21 44 1z m382 -102
c-3 -16 -7 -22 -10 -15 -4 13 4 42 11 42 2 0 2 -12 -1 -27z m-319 -38 c-3 -8
-9 -15 -13 -15 -5 0 -14 -2 -22 -5 -7 -3 -22 1 -32 8 -18 13 -16 14 13 12 20
-1 35 3 38 11 3 8 9 12 14 9 4 -3 6 -12 2 -20z"/>
<path d="M1326 2208 c-31 -16 -53 -19 -99 -16 l-60 4 27 -23 c41 -35 93 -31
142 11 47 41 43 51 -10 24z"/>
<path d="M600 1251 c0 -14 -5 -21 -12 -18 -10 3 -13 -19 -13 -92 0 -53 -6
-170 -13 -261 -7 -91 -17 -275 -22 -410 -5 -135 -12 -293 -16 -352 -5 -72 -4
-108 3 -108 16 0 23 91 34 420 11 337 23 567 38 724 6 61 8 112 6 115 -3 2 -5
-6 -5 -18z"/>
<path d="M1551 1220 c-3 -141 22 -843 34 -959 8 -79 15 -168 15 -198 0 -39 4
-53 13 -50 15 5 15 45 -2 247 -7 85 -14 182 -16 215 -2 33 -6 94 -9 135 -3 41
-8 194 -12 340 -3 145 -10 274 -14 285 -7 16 -9 13 -9 -15z"/>
<path d="M1367 1169 c-3 -12 0 -19 8 -19 20 0 25 13 10 27 -10 9 -14 8 -18 -8z"/>
<path d="M1347 1107 c-11 -29 -9 -43 4 -30 6 6 9 19 7 29 -3 18 -4 18 -11 1z"/>
<path d="M1383 970 c-26 -10 -29 -20 -11 -38 17 -17 43 -15 58 3 18 22 4 31
-18 12 -10 -10 -22 -14 -25 -10 -12 11 -8 23 8 23 8 0 15 5 15 10 0 6 -1 10
-2 9 -2 0 -13 -4 -25 -9z"/>
<path d="M779 356 c31 -38 145 -109 265 -166 122 -58 162 -72 139 -49 -6 6
-76 42 -157 79 -80 38 -172 88 -203 112 -32 23 -51 34 -44 24z"/>
<path d="M1170 171 c0 -27 101 -40 160 -21 31 10 30 10 -45 14 -33 1 -72 6
-87 10 -19 6 -28 4 -28 -3z"/>
</g>
</svg>
