<?xml version="1.0" standalone="no"?>
<!DOCTYPE svg PUBLIC "-//W3C//DTD SVG 20010904//EN"
 "http://www.w3.org/TR/2001/REC-SVG-20010904/DTD/svg10.dtd">
<svg version="1.0" xmlns="http://www.w3.org/2000/svg"
 width="567.000000pt" height="567.000000pt" viewBox="0 0 567.000000 567.000000"
 preserveAspectRatio="xMidYMid meet">

<g transform="translate(0.000000,567.000000) scale(0.100000,-0.100000)"
fill="#000000" stroke="none">
<path d="M330 5004 c0 -21 4 -25 23 -22 14 2 23 11 25 26 3 18 -1 22 -22 22
-21 0 -26 -5 -26 -26z"/>
<path d="M640 4830 c0 -15 7 -20 25 -20 18 0 25 5 25 20 0 15 -7 20 -25 20
-18 0 -25 -5 -25 -20z"/>
<path d="M1310 4695 c0 -18 5 -25 20 -25 15 0 20 7 20 25 0 18 -5 25 -20 25
-15 0 -20 -7 -20 -25z"/>
<path d="M240 4560 c0 -15 7 -20 25 -20 18 0 25 5 25 20 0 15 -7 20 -25 20
-18 0 -25 -5 -25 -20z"/>
<path d="M2590 4560 c0 -17 7 -20 45 -20 38 0 45 -3 45 -20 0 -17 7 -20 45
-20 41 0 45 -2 45 -25 0 -18 5 -25 20 -25 17 0 20 -7 20 -45 l0 -45 -85 0 -84
0 -3 68 c-3 61 -5 67 -25 70 -21 3 -23 -1 -23 -42 0 -39 -3 -46 -20 -46 -17 0
-20 -7 -20 -45 l0 -45 -44 0 c-39 0 -45 -3 -48 -22 -2 -19 -10 -24 -45 -26
-40 -3 -43 -1 -43 22 0 19 5 26 20 26 13 0 20 7 20 20 0 17 7 20 45 20 41 0
45 2 45 25 0 24 -2 25 -65 25 -63 0 -65 -1 -65 -25 0 -18 -5 -25 -20 -25 -18
0 -20 -7 -20 -65 0 -63 -1 -65 -25 -65 -23 0 -25 -4 -25 -45 0 -38 -3 -45 -20
-45 -17 0 -20 -7 -20 -45 l0 -45 -44 0 -45 0 -3 -42 c-2 -36 -7 -44 -25 -46
-33 -5 -31 -42 2 -42 23 0 25 -4 25 -45 l0 -45 -45 0 -45 0 0 90 c0 82 -2 90
-19 90 -13 0 -21 -8 -23 -22 -2 -15 -11 -24 -25 -26 -33 -5 -31 -42 2 -42 18
0 25 -5 25 -20 0 -15 -7 -20 -25 -20 -20 0 -25 -5 -25 -25 0 -20 5 -25 25 -25
23 0 25 -4 25 -45 0 -38 3 -45 20 -45 13 0 20 -7 20 -20 0 -18 -7 -20 -65 -20
l-65 0 0 -45 c0 -38 3 -45 20 -45 19 0 20 -7 20 -90 0 -83 -1 -90 -20 -90 -15
0 -20 7 -20 25 0 23 -4 25 -45 25 l-45 0 0 85 c0 84 0 85 -25 85 -25 0 -25 -1
-25 -85 0 -84 0 -85 25 -85 20 0 25 -5 25 -25 0 -18 5 -25 19 -25 16 0 20 -8
23 -42 2 -36 7 -44 26 -46 20 -3 22 -9 22 -68 0 -62 -1 -64 -25 -64 -33 0 -35
-37 -2 -42 14 -2 22 -10 22 -23 0 -13 -8 -21 -22 -23 -20 -3 -23 -9 -23 -48
l0 -45 -42 3 c-43 3 -43 3 -46 46 -3 34 -7 42 -23 42 -17 0 -19 -8 -19 -85 0
-78 2 -85 20 -85 18 0 20 -7 20 -70 0 -63 -2 -70 -20 -70 -15 0 -20 7 -20 25
0 18 -5 25 -19 25 -16 0 -20 8 -23 43 -2 35 -7 43 -25 45 -22 3 -23 0 -23 -67
0 -69 1 -71 25 -71 18 0 25 -5 25 -20 0 -13 7 -20 20 -20 15 0 20 -7 20 -25 0
-18 5 -25 20 -25 13 0 20 -7 20 -20 0 -13 -7 -20 -20 -20 -13 0 -20 -7 -20
-20 0 -13 7 -20 20 -20 15 0 20 -7 20 -25 0 -20 5 -25 25 -25 18 0 25 -5 25
-20 0 -13 7 -20 20 -20 15 0 20 -7 20 -26 0 -21 4 -25 23 -22 14 2 23 11 25
26 2 14 10 22 23 22 17 0 19 -8 19 -70 l0 -70 45 0 c38 0 45 -3 45 -20 0 -17
-7 -20 -45 -20 -38 0 -45 -3 -45 -19 0 -13 8 -21 23 -23 20 -3 22 -9 25 -70
l3 -68 -45 0 c-39 0 -45 3 -48 23 -2 18 -10 23 -45 25 -42 3 -42 3 -45 45 -3
42 -3 42 -45 45 l-43 3 0 -45 c0 -39 3 -46 19 -46 13 0 21 -8 23 -22 2 -19 10
-24 45 -26 42 -3 42 -3 45 -45 3 -42 3 -42 46 -45 34 -3 42 -7 42 -23 0 -12
-7 -19 -20 -19 -13 0 -20 -7 -20 -19 0 -16 8 -20 43 -23 35 -2 43 -7 45 -25 3
-21 9 -23 68 -23 l64 0 0 -91 c0 -88 -1 -90 -22 -87 -15 2 -24 11 -26 25 -2
15 -10 23 -23 23 -16 0 -19 -7 -19 -45 0 -38 3 -45 20 -45 13 0 20 -7 20 -20
0 -17 7 -20 45 -20 41 0 45 -2 45 -25 0 -18 -5 -25 -20 -25 -13 0 -20 -7 -20
-20 0 -13 7 -20 20 -20 13 0 20 7 20 20 0 18 7 20 70 20 63 0 70 -2 70 -20 0
-13 7 -20 20 -20 13 0 20 7 20 20 0 13 7 20 20 20 13 0 20 -7 20 -20 0 -15 7
-20 25 -20 20 0 25 -5 25 -25 0 -23 4 -25 45 -25 42 0 45 2 45 26 0 23 3 25
43 22 34 -2 42 -7 42 -23 0 -13 -8 -21 -22 -23 -15 -2 -23 -10 -23 -23 0 -17
-7 -19 -65 -19 -63 0 -65 -1 -65 -25 0 -23 -4 -25 -45 -25 -38 0 -45 -3 -45
-20 0 -17 7 -20 45 -20 38 0 45 3 45 20 0 13 7 20 20 20 13 0 20 -7 20 -20 0
-19 7 -20 90 -20 83 0 90 1 90 20 0 17 7 20 45 20 38 0 45 -3 45 -20 0 -13 7
-20 20 -20 13 0 20 7 20 20 0 17 7 20 45 20 38 0 45 -3 45 -20 0 -13 -7 -20
-20 -20 -13 0 -20 -7 -20 -20 0 -13 7 -20 20 -20 13 0 20 7 20 20 0 15 7 20
25 20 23 0 25 4 25 45 0 38 3 45 20 45 13 0 20 7 20 20 0 13 7 20 20 20 13 0
20 -7 20 -20 0 -15 7 -20 25 -20 18 0 25 5 25 20 0 15 -7 20 -25 20 -23 0 -25
4 -25 45 0 41 2 45 25 45 18 0 25 -5 25 -20 0 -13 7 -20 20 -20 15 0 20 -7 20
-25 0 -20 5 -25 26 -25 21 0 25 4 22 23 -2 14 -11 23 -25 25 -33 5 -31 42 2
42 23 0 25 4 25 45 0 38 3 45 20 45 13 0 20 -7 20 -20 0 -15 7 -20 25 -20 25
0 25 1 25 85 0 78 2 85 20 85 13 0 20 -7 20 -20 0 -13 7 -20 20 -20 15 0 20
-7 20 -25 0 -18 -5 -25 -20 -25 -17 0 -20 -7 -20 -40 0 -33 3 -40 20 -40 13 0
20 7 20 20 0 15 7 20 25 20 24 0 25 2 25 65 0 58 2 65 20 65 13 0 20 -7 20
-20 0 -15 7 -20 25 -20 l26 0 -3 88 c-3 82 -4 87 -25 90 -15 2 -23 10 -23 23
0 12 -7 19 -20 19 -13 0 -20 7 -20 20 0 13 7 20 20 20 15 0 20 7 20 25 0 20 5
25 25 25 23 0 25 4 25 45 0 38 3 45 20 45 13 0 20 7 20 20 0 15 7 20 25 20 20
0 25 5 25 25 0 18 5 25 20 25 18 0 20 7 20 65 0 58 2 65 19 65 13 0 21 -8 23
-22 2 -19 10 -24 46 -26 39 -3 42 -1 42 22 0 21 5 26 25 26 33 0 35 37 3 42
-15 2 -24 11 -26 26 -2 14 -10 22 -23 22 -16 0 -19 -7 -19 -45 0 -41 -2 -45
-25 -45 l-25 0 0 110 c0 103 -1 110 -20 110 -13 0 -20 -7 -20 -20 0 -17 -7
-20 -45 -20 l-45 0 0 85 c0 84 0 85 25 85 18 0 25 -5 25 -20 0 -18 7 -20 65
-20 l65 0 0 45 c0 38 3 45 20 45 17 0 20 7 20 45 0 38 -3 45 -20 45 -17 0 -20
-7 -20 -45 0 -41 -2 -45 -25 -45 -23 0 -25 4 -25 45 0 38 -3 45 -20 45 -17 0
-20 7 -20 40 0 33 3 40 20 40 13 0 20 -7 20 -20 0 -17 7 -20 45 -20 38 0 45 3
45 20 0 17 -7 20 -45 20 l-45 0 0 45 c0 41 2 45 25 45 25 0 25 1 25 90 l0 90
-45 0 c-38 0 -45 3 -45 20 0 13 -7 20 -20 20 -13 0 -20 -7 -20 -20 0 -13 7
-20 20 -20 13 0 20 -7 20 -20 0 -13 -7 -20 -20 -20 -17 0 -20 -7 -20 -45 0
-41 -2 -45 -25 -45 -25 0 -25 1 -25 85 0 78 -2 85 -20 85 -15 0 -20 7 -20 25
0 18 5 25 20 25 18 0 20 7 20 65 0 63 1 65 25 65 18 0 25 -5 25 -20 0 -13 7
-20 20 -20 13 0 20 7 20 20 0 13 -7 20 -20 20 -17 0 -20 7 -20 45 0 38 3 45
20 45 19 0 20 7 20 200 0 192 -1 200 -20 200 -18 0 -20 -8 -22 -132 l-3 -133
-42 -3 -43 -3 0 70 c0 64 2 71 20 71 13 0 20 7 20 20 0 17 -7 20 -45 20 l-45
0 0 175 c0 168 -1 175 -20 175 -15 0 -20 7 -20 26 0 21 -4 25 -22 22 -22 -3
-23 -8 -26 -90 -3 -80 -5 -88 -22 -88 -13 0 -20 -7 -20 -20 0 -13 -7 -20 -19
-20 -13 0 -21 -8 -23 -22 -2 -15 -11 -24 -25 -26 -21 -3 -23 1 -23 42 0 39 -3
46 -19 46 -13 0 -21 8 -23 23 -2 14 -11 23 -25 25 -19 3 -23 10 -23 43 0 32
-3 39 -20 39 -15 0 -20 7 -20 25 0 23 -4 25 -45 25 l-45 0 0 45 c0 38 -3 45
-19 45 -16 0 -20 8 -23 43 -2 35 -7 43 -25 45 -15 2 -23 10 -23 23 0 16 -7 19
-45 19 -38 0 -45 -3 -45 -20 0 -13 -7 -20 -20 -20 -13 0 -20 7 -20 20 0 15 -7
20 -25 20 -18 0 -25 5 -25 20 0 18 -7 20 -65 20 -58 0 -65 -2 -65 -20z m268
-87 c2 -15 10 -23 23 -23 12 0 19 -7 19 -20 0 -15 7 -20 26 -20 21 0 25 -4 22
-22 -2 -15 -11 -24 -25 -26 -19 -3 -23 1 -23 22 0 19 -5 26 -20 26 -13 0 -20
7 -20 20 0 15 -7 20 -25 20 -20 0 -25 5 -25 26 0 21 4 25 23 22 14 -2 23 -11
25 -25z m-448 -288 c0 -38 -3 -45 -20 -45 -17 0 -20 7 -20 45 0 38 3 45 20 45
17 0 20 -7 20 -45z m980 -90 c0 -41 -2 -45 -25 -45 -23 0 -25 -4 -25 -45 0
-38 -3 -45 -20 -45 -17 0 -20 7 -20 45 0 38 3 45 20 45 17 0 20 7 20 45 0 41
2 45 25 45 23 0 25 -4 25 -45z m-1110 -90 c0 -38 -3 -45 -20 -45 -17 0 -20 7
-20 45 0 38 3 45 20 45 17 0 20 -7 20 -45z m-130 -260 c0 -38 3 -45 20 -45 15
0 20 -7 20 -26 0 -23 -3 -25 -42 -22 l-43 3 -3 54 c-4 66 1 81 28 81 17 0 20
-6 20 -45z m1370 -115 c0 -13 -7 -20 -20 -20 -13 0 -20 7 -20 20 0 13 7 20 20
20 13 0 20 -7 20 -20z m0 -85 c0 -18 -5 -25 -20 -25 -15 0 -20 7 -20 25 0 18
5 25 20 25 15 0 20 -7 20 -25z m-1550 -180 c0 -20 5 -25 25 -25 l25 0 0 -110
c0 -103 1 -110 20 -110 13 0 20 -7 20 -20 0 -13 -7 -20 -20 -20 -13 0 -20 7
-20 20 0 15 -7 20 -25 20 l-25 0 0 110 c0 103 -1 110 -20 110 -15 0 -20 7 -20
25 0 18 5 25 20 25 15 0 20 -7 20 -25z m-40 -355 c0 -15 -7 -20 -25 -20 -18 0
-25 5 -25 20 0 15 7 20 25 20 18 0 25 -5 25 -20z m-90 -40 c0 -13 7 -20 20
-20 15 0 20 -7 20 -25 0 -20 5 -25 25 -25 18 0 25 -5 25 -20 0 -15 -7 -20 -25
-20 -20 0 -25 -5 -25 -25 0 -20 5 -25 26 -25 23 0 25 -3 22 -42 -3 -43 -3 -43
-45 -46 -40 -3 -43 -1 -43 22 0 19 5 26 20 26 13 0 20 7 20 20 0 13 -7 20 -20
20 -15 0 -20 7 -20 25 0 18 5 25 20 25 13 0 20 7 20 20 0 13 -7 20 -20 20 -15
0 -20 7 -20 25 0 20 -5 25 -25 25 -18 0 -25 5 -25 20 0 15 7 20 25 20 18 0 25
-5 25 -20z m1770 -90 c0 -13 -7 -20 -20 -20 -13 0 -20 7 -20 20 0 13 7 20 20
20 13 0 20 -7 20 -20z m-1680 -220 c0 -15 -7 -20 -25 -20 -20 0 -25 -5 -25
-25 0 -20 5 -25 25 -25 18 0 25 -5 25 -20 0 -15 -7 -20 -25 -20 -18 0 -25 5
-25 20 0 13 -7 20 -20 20 -15 0 -20 7 -20 25 0 18 5 25 20 25 13 0 20 7 20 20
0 15 7 20 25 20 18 0 25 -5 25 -20z m1640 -90 c0 -15 -7 -20 -25 -20 -18 0
-25 5 -25 20 0 15 7 20 25 20 18 0 25 -5 25 -20z m-50 -180 c0 -13 -7 -20 -20
-20 -13 0 -20 -7 -20 -20 0 -15 -7 -20 -25 -20 -18 0 -25 5 -25 20 0 15 7 20
25 20 18 0 25 5 25 20 0 13 7 20 20 20 13 0 20 -7 20 -20z m-1420 -65 c0 -38
-3 -45 -20 -45 -17 0 -20 7 -20 45 0 38 3 45 20 45 17 0 20 -7 20 -45z m1380
-65 c0 -17 -7 -20 -45 -20 -38 0 -45 3 -45 20 0 17 7 20 45 20 38 0 45 -3 45
-20z m-1420 -90 c0 -13 -7 -20 -20 -20 -13 0 -20 7 -20 20 0 13 7 20 20 20 13
0 20 -7 20 -20z m178 -267 c3 -19 -1 -23 -22 -23 -21 0 -26 5 -26 26 0 21 4
25 23 22 14 -2 23 -11 25 -25z m1152 2 c0 -23 -4 -25 -45 -25 -41 0 -45 2 -45
25 0 23 4 25 45 25 41 0 45 -2 45 -25z m-1150 -135 c0 -13 7 -20 20 -20 13 0
20 -7 20 -20 0 -13 -7 -20 -20 -20 -13 0 -20 7 -20 20 0 15 -7 20 -25 20 -18
0 -25 5 -25 20 0 15 7 20 25 20 18 0 25 -5 25 -20z m570 -265 c0 -18 -5 -25
-20 -25 -15 0 -20 7 -20 25 0 18 5 25 20 25 15 0 20 -7 20 -25z"/>
<path d="M2460 4475 c0 -18 5 -25 20 -25 15 0 20 7 20 25 0 18 -5 25 -20 25
-15 0 -20 -7 -20 -25z"/>
<path d="M820 4385 c0 -18 5 -25 20 -25 15 0 20 7 20 25 0 18 -5 25 -20 25
-15 0 -20 -7 -20 -25z"/>
<path d="M1882 4388 c2 -15 10 -23 23 -23 13 0 21 8 23 23 3 18 -1 22 -23 22
-22 0 -26 -4 -23 -22z"/>
<path d="M3120 4340 c0 -15 7 -20 25 -20 18 0 25 5 25 20 0 15 -7 20 -25 20
-18 0 -25 -5 -25 -20z"/>
<path d="M3210 4315 c0 -38 -3 -45 -20 -45 -13 0 -20 -7 -20 -20 0 -13 7 -20
20 -20 13 0 20 7 20 20 0 15 7 20 25 20 18 0 25 -5 25 -20 0 -13 7 -20 20 -20
13 0 20 7 20 20 0 13 -7 20 -20 20 -17 0 -20 7 -20 45 0 41 -2 45 -25 45 -23
0 -25 -4 -25 -45z"/>
<path d="M2190 4210 c0 -15 7 -20 25 -20 18 0 25 5 25 20 0 15 -7 20 -25 20
-18 0 -25 -5 -25 -20z"/>
<path d="M3520 4075 c0 -22 4 -26 23 -23 14 2 22 10 22 23 0 13 -8 21 -22 23
-19 3 -23 -1 -23 -23z"/>
<path d="M380 4030 c0 -13 7 -20 20 -20 13 0 20 7 20 20 0 13 -7 20 -20 20
-13 0 -20 -7 -20 -20z"/>
<path d="M1480 4030 c0 -15 7 -20 25 -20 18 0 25 5 25 20 0 15 -7 20 -25 20
-18 0 -25 -5 -25 -20z"/>
<path d="M1000 3900 c0 -13 7 -20 20 -20 13 0 20 7 20 20 0 13 -7 20 -20 20
-13 0 -20 -7 -20 -20z"/>
<path d="M1930 3765 c0 -18 5 -25 20 -25 15 0 20 7 20 25 0 18 -5 25 -20 25
-15 0 -20 -7 -20 -25z"/>
<path d="M1840 3720 c0 -13 7 -20 20 -20 13 0 20 7 20 20 0 13 -7 20 -20 20
-13 0 -20 -7 -20 -20z"/>
<path d="M200 3630 c0 -13 7 -20 20 -20 13 0 20 7 20 20 0 13 -7 20 -20 20
-13 0 -20 -7 -20 -20z"/>
<path d="M600 3590 c0 -13 7 -20 20 -20 13 0 20 7 20 20 0 13 -7 20 -20 20
-13 0 -20 -7 -20 -20z"/>
<path d="M3654 3465 c-8 -20 4 -35 27 -35 14 0 19 7 19 25 0 18 -5 25 -20 25
-11 0 -23 -7 -26 -15z"/>
<path d="M950 3410 c0 -15 7 -20 25 -20 18 0 25 5 25 20 0 15 -7 20 -25 20
-18 0 -25 -5 -25 -20z"/>
<path d="M1530 3410 c0 -13 7 -20 20 -20 13 0 20 7 20 20 0 13 -7 20 -20 20
-13 0 -20 -7 -20 -20z"/>
<path d="M3653 3374 c-3 -8 -1 -20 5 -26 16 -16 42 -2 42 22 0 24 -38 28 -47
4z"/>
<path d="M1040 3190 c0 -15 7 -20 25 -20 18 0 25 5 25 20 0 15 -7 20 -25 20
-18 0 -25 -5 -25 -20z"/>
<path d="M1790 3190 c0 -15 7 -20 25 -20 18 0 25 5 25 20 0 15 -7 20 -25 20
-18 0 -25 -5 -25 -20z"/>
<path d="M200 3055 c0 -18 5 -25 20 -25 15 0 20 7 20 25 0 18 -5 25 -20 25
-15 0 -20 -7 -20 -25z"/>
<path d="M552 3058 c2 -15 10 -23 23 -23 13 0 21 8 23 23 3 18 -1 22 -23 22
-22 0 -26 -4 -23 -22z"/>
<path d="M1620 3010 c0 -13 7 -20 20 -20 13 0 20 7 20 20 0 13 -7 20 -20 20
-13 0 -20 -7 -20 -20z"/>
<path d="M1570 2790 c0 -15 7 -20 25 -20 18 0 25 5 25 20 0 15 -7 20 -25 20
-18 0 -25 -5 -25 -20z"/>
<path d="M1040 2660 c0 -15 7 -20 25 -20 18 0 25 5 25 20 0 15 -7 20 -25 20
-18 0 -25 -5 -25 -20z"/>
<path d="M1840 2415 l0 -45 45 0 c38 0 45 3 45 19 0 13 -8 21 -22 23 -15 2
-24 11 -26 26 -2 14 -10 22 -23 22 -16 0 -19 -7 -19 -45z"/>
<path d="M510 2350 c0 -13 7 -20 20 -20 13 0 20 7 20 20 0 13 -7 20 -20 20
-13 0 -20 -7 -20 -20z"/>
<path d="M3650 2350 c0 -15 7 -20 25 -20 20 0 25 -5 25 -25 0 -20 -5 -25 -25
-25 -23 0 -25 -4 -25 -45 0 -38 -3 -45 -20 -45 -15 0 -20 7 -20 25 0 18 -5 25
-20 25 -15 0 -20 -7 -20 -25 0 -18 5 -25 20 -25 13 0 20 -7 20 -20 0 -13 -7
-20 -19 -20 -13 0 -21 -8 -23 -22 -2 -15 -11 -24 -25 -26 -15 -2 -23 -10 -23
-23 0 -16 7 -19 45 -19 38 0 45 3 45 20 0 13 7 20 20 20 17 0 20 7 20 45 0 41
2 45 25 45 23 0 25 4 25 45 0 38 3 45 20 45 15 0 20 7 20 25 0 18 -5 25 -20
25 -13 0 -20 7 -20 20 0 15 -7 20 -25 20 -18 0 -25 -5 -25 -20z"/>
<path d="M240 2260 c0 -15 7 -20 25 -20 18 0 25 5 25 20 0 15 -7 20 -25 20
-18 0 -25 -5 -25 -20z"/>
<path d="M1480 2260 c0 -15 7 -20 25 -20 18 0 25 5 25 20 0 15 -7 20 -25 20
-18 0 -25 -5 -25 -20z"/>
<path d="M1130 2080 c0 -13 7 -20 20 -20 13 0 20 7 20 20 0 13 -7 20 -20 20
-13 0 -20 -7 -20 -20z"/>
<path d="M3527 2014 c-4 -4 -7 -16 -7 -26 0 -13 7 -18 26 -18 21 0 25 4 22 22
-3 23 -27 35 -41 22z"/>
<path d="M1970 1860 c0 -15 7 -20 25 -20 18 0 25 5 25 20 0 15 -7 20 -25 20
-18 0 -25 -5 -25 -20z"/>
<path d="M3520 1816 c0 -19 -5 -26 -20 -26 -13 0 -20 -7 -20 -20 0 -17 7 -20
46 -20 l45 0 -3 43 c-2 35 -7 43 -25 45 -19 3 -23 -1 -23 -22z"/>
<path d="M1750 1770 c0 -13 7 -20 20 -20 13 0 20 7 20 20 0 13 -7 20 -20 20
-13 0 -20 -7 -20 -20z"/>
<path d="M550 1730 c0 -15 7 -20 25 -20 18 0 25 5 25 20 0 15 -7 20 -25 20
-18 0 -25 -5 -25 -20z"/>
<path d="M1220 1550 c0 -13 7 -20 20 -20 13 0 20 7 20 20 0 13 -7 20 -20 20
-13 0 -20 -7 -20 -20z"/>
<path d="M3260 1550 c0 -13 7 -20 20 -20 13 0 20 7 20 20 0 13 -7 20 -20 20
-13 0 -20 -7 -20 -20z"/>
<path d="M242 1508 c2 -15 10 -23 23 -23 13 0 21 8 23 23 3 18 -1 22 -23 22
-22 0 -26 -4 -23 -22z"/>
<path d="M1667 1394 c-4 -4 -7 -16 -7 -26 0 -14 6 -19 23 -16 14 2 22 10 22
23 0 20 -25 32 -38 19z"/>
<path d="M2680 1375 c0 -18 5 -25 20 -25 15 0 20 7 20 25 0 18 -5 25 -20 25
-15 0 -20 -7 -20 -25z"/>
<path d="M3260 1330 c0 -13 7 -20 20 -20 13 0 20 7 20 20 0 13 -7 20 -20 20
-13 0 -20 -7 -20 -20z"/>
<path d="M1440 1285 c0 -18 5 -25 20 -25 15 0 20 7 20 25 0 18 -5 25 -20 25
-15 0 -20 -7 -20 -25z"/>
<path d="M820 1240 c0 -13 7 -20 20 -20 13 0 20 7 20 20 0 13 -7 20 -20 20
-13 0 -20 -7 -20 -20z"/>
<path d="M290 885 c0 -18 5 -25 20 -25 15 0 20 7 20 25 0 18 -5 25 -20 25 -15
0 -20 -7 -20 -25z"/>
</g>
</svg>
